<?xml version="1.0" encoding="iso-8859-1"?>
<!-- Generator: Adobe Illustrator 18.0.0, SVG Export Plug-In . SVG Version: 6.00 Build 0)  -->
<!DOCTYPE svg PUBLIC "-//W3C//DTD SVG 1.1//EN" "http://www.w3.org/Graphics/SVG/1.1/DTD/svg11.dtd">
<svg xmlns="http://www.w3.org/2000/svg" xmlns:xlink="http://www.w3.org/1999/xlink" version="1.1" id="Capa_1" x="0px" y="0px" viewBox="0 0 297.669 297.669" style="enable-background:new 0 0 297.669 297.669;" xml:space="preserve" width="512px" height="512px">
<g>
	<path d="M81.835,9.5c0-5.247-4.253-9.5-9.5-9.5H9.668c-5.247,0-9.5,4.253-9.5,9.5V58v230.169c0,5.247,4.253,9.5,9.5,9.5h62.667h0   c5.247,0,9.5-4.253,9.5-9.5V58h0V9.5z M25.168,25h31.667v33H25.168V25z" fill="#4d4d4d"/>
	<path d="M288.001,0h-62.667c-5.247,0-9.5,4.253-9.5,9.5v278.669c0,5.247,4.253,9.5,9.5,9.5h0h62.666h0c5.247,0,9.5-4.253,9.5-9.5   V9.5C297.501,4.253,293.248,0,288.001,0z M272.501,25v128h-31.667V25H272.501z" fill="#4d4d4d"/>
	<path d="M180.168,0h-62.666c-5.247,0-9.5,4.253-9.5,9.5V102h0v186.169c0,5.247,4.254,9.5,9.5,9.5h0h62.666   c5.247,0,9.5-4.253,9.5-9.5V102V9.5C189.668,4.253,185.415,0,180.168,0z M133.001,102V25h31.667v77H133.001z" fill="#4d4d4d"/>
</g>
<g>
</g>
<g>
</g>
<g>
</g>
<g>
</g>
<g>
</g>
<g>
</g>
<g>
</g>
<g>
</g>
<g>
</g>
<g>
</g>
<g>
</g>
<g>
</g>
<g>
</g>
<g>
</g>
<g>
</g>
</svg>
